<?xml version="1.0" encoding="utf-8"?>
<!-- Generator: Adobe Illustrator 27.5.0, SVG Export Plug-In . SVG Version: 6.00 Build 0)  -->
<svg version="1.1" xmlns="http://www.w3.org/2000/svg" xmlns:xlink="http://www.w3.org/1999/xlink" x="0px" y="0px"
	 viewBox="0 0 750 500" style="enable-background:new 0 0 750 500;" xml:space="preserve">
<g id="BACKGROUND">
	<rect style="fill:#D9E9F3;" width="750" height="500"/>
</g>
<g id="OBJECTS">
	<g>
		<ellipse style="fill:#9BB4E0;" cx="606.14" cy="459.38" rx="68.5" ry="5.5"/>
		<g>
			<g>
				<path style="fill:#4D9AD0;stroke:#422724;stroke-linecap:round;stroke-linejoin:round;stroke-miterlimit:10;" d="M639.11,422.45
					c5.85,5.05,14.11,6.05,21.83,6.22c7.72,0.17,15.73-0.21,22.85,2.79c1.63,0.69,3.34,1.56,5.07,1.19c2.16-0.46,3.5-2.85,3.38-5.05
					c-0.12-2.2-1.38-4.19-2.86-5.82c-3.39-3.75-8.06-6.17-12.9-7.62c-4.84-1.45-9.9-2.03-14.46-2.41c-4.55-0.84-9.1-1.68-13.65-2.51
					"/>
				<path style="fill:#4D9AD0;stroke:#422724;stroke-linecap:round;stroke-linejoin:round;stroke-miterlimit:10;" d="M542.78,428.3
					c-1.49-0.91-3.22-1.73-5.02-2.38c-2.6-0.93-5.52-0.38-7.61,1.44c-5.77,5.01-12.16,8.34-19.62,10.94
					c-2.81,0.98-5.82,1.83-7.65,4.36c-0.89,1.23-1.29,2.81-0.85,4.26c0.75,2.47,3.22,3.09,5.44,3.28c4.69,0.4,9.48-0.46,13.74-2.46"
					/>
				<path style="fill:#4D9AD0;stroke:#422724;stroke-linecap:round;stroke-linejoin:round;stroke-miterlimit:10;" d="M632.19,404.07
					c-8.62,0.09-17.2-1-25.82-1.4c-8.61-0.4-17.41-0.08-25.56,2.72c-8.15,2.8-15.66,8.36-19.24,16.2
					c-1.63,3.56-2.39,7.74-0.92,11.37c1.62,3.99,5.58,6.52,9.56,8.18c12.63,5.25,26.95,4.14,40.43,1.81
					c9.6-1.66,19.32-3.97,27.51-9.24c8.19-5.27,14.69-14.01,15.01-23.75C645.69,410.11,638.18,408.14,632.19,404.07z"/>
				<path style="fill:#4D9AD0;stroke:#422724;stroke-linecap:round;stroke-linejoin:round;stroke-miterlimit:10;" d="M572.2,411.87
					c-23.88,2.89-48.89-5.67-65.98-22.6c-2.01-1.99-4.54-4.28-7.26-3.52c-1.92,0.53-3.16,2.55-3.3,4.54
					c-0.14,1.99,0.63,3.94,1.6,5.68c4.34,7.82,12.63,12.61,20.95,15.92c15.54,6.19,32.59,8.54,49.17,6.55
					C568.46,415.88,570.18,413.6,572.2,411.87z"/>
				<path style="fill:#4D9AD0;stroke:#422724;stroke-linecap:round;stroke-linejoin:round;stroke-miterlimit:10;" d="M583.68,404.52
					c-12.39,3.03-22.01,10.29-30.49,19.23c-1.49,1.57-3.67,2.29-5.8,1.9c-0.91-0.17-1.83-0.26-2.73-0.29
					c-1.78-0.06-3.49,0.64-4.74,1.9c-7.69,7.7-16.33,14.45-25.67,20.05c-0.91,0.55-1.67,1.34-2.05,2.34c-1,2.61,1.02,4.11,2.96,4.83
					c5.84,2.16,12.38-0.02,17.89-2.91c5.51-2.89,10.81-6.58,16.95-7.65c6.29-1.1,12.69,0.68,19.05,1.25
					c6.37,0.57,13.64-0.54,17.41-5.7"/>
				<path style="fill:#4D9AD0;stroke:#422724;stroke-linecap:round;stroke-linejoin:round;stroke-miterlimit:10;" d="M636.61,415.47
					c4.25,3.79,9.36,6.61,14.83,8.19c3.85,1.11,7.87,1.61,11.67,2.92c3.8,1.31,7.48,3.6,9.25,7.2c1.19,2.43,1.13,5.87-1.16,7.31
					c-2.12,1.34-4.85,0.31-7.28-0.3c-8.13-2.02-16.69,1.3-25.01,0.35c-6.05-0.69-11.81-3.72-15.8-8.32"/>
			</g>
			<g>
				<path style="fill:#4D9AD0;stroke:#422724;stroke-linecap:round;stroke-linejoin:round;stroke-miterlimit:10;" d="M671.36,328.86
					c0,0-28.22-27.37-41.44-23.17c-5.78,1.83-12.92,40.16-7.21,50.53"/>
				<g>
					<path style="fill:#4D9AD0;stroke:#422724;stroke-linecap:round;stroke-linejoin:round;stroke-miterlimit:10;" d="
						M684.55,411.01c-0.37,0.08-0.74,0.16-1.11,0.23c-12.43,2.14-21.61,1.85-27.14,1.2c-29.26-3.44-47.68-9.74-47.68-38.54
						c0-32.45,16.05-49.5,42-49.5c37.43,0,54.24,26.44,50,55.5c-0.24,1.66-0.55,3.25-0.9,4.78c-0.02,0.05-0.03,0.11-0.04,0.16
						c1.47,0.11,4.09,0.67,4.96,3.29C707.38,396.34,699.33,407.74,684.55,411.01z"/>
				</g>
				<g>
					<path style="fill:#4D9AD0;stroke:#422724;stroke-linecap:round;stroke-linejoin:round;stroke-miterlimit:10;" d="
						M637.35,326.87c0,0-40.84-6.48-50.06,4.51c-4.03,4.8,11.99,40.47,23.06,45.77"/>
					<path style="fill:#F0C1AF;stroke:#422724;stroke-linecap:round;stroke-linejoin:round;stroke-miterlimit:10;" d="M591.81,335.7
						c12.44-2.41,20.75,10.17,36.73,7.96c4.11-0.57-8.47,28.22-17,27.4C605.39,370.79,587.93,336.45,591.81,335.7z"/>
				</g>
				<g>
					<ellipse style="fill:#422724;" cx="680.74" cy="386.98" rx="2.5" ry="4.38"/>
					<path style="fill:#E6F9FF;stroke:#422724;stroke-linecap:round;stroke-linejoin:round;stroke-miterlimit:10;" d="
						M684.55,411.01c-0.37,0.08-0.74,0.16-1.11,0.23c-0.03-0.09-0.06-0.17-0.08-0.26c-1.87-6.98,0.13-14.87,5.1-20.12
						c2.99-3.16,7-5.3,11.26-6.18c-0.02,0.05-0.03,0.11-0.04,0.16c1.47,0.11,4.09,0.67,4.96,3.29
						C707.38,396.34,699.33,407.74,684.55,411.01z"/>
					<path style="fill:#422724;" d="M700.81,385.01c0.14-0.82,2.56-1.07,4.91-0.68c4.95,0.81,1.48,9.95-0.72,9.17
						C703.91,393.1,700.62,386.17,700.81,385.01z"/>
				</g>
			</g>
		</g>
	</g>
	<g>
		<ellipse style="fill:#9BB4E0;" cx="369.93" cy="459.38" rx="68.5" ry="5.5"/>
		<g>
			<g>
				<path style="fill:#4D9AD0;stroke:#422724;stroke-linecap:round;stroke-linejoin:round;stroke-miterlimit:10;" d="M388.56,441.15
					c-1.42,4.57-2.85,9.15-4.27,13.72c-0.49,1.58-1.09,3.3-2.53,4.16c-1.89,1.14-4.51,0.21-5.89-1.48c-1.39-1.7-1.83-3.93-2.14-6.08
					c-0.63-4.36-0.92-8.8-0.42-13.18"/>
				<path style="fill:#4D9AD0;stroke:#422724;stroke-linecap:round;stroke-linejoin:round;stroke-miterlimit:10;" d="M330.81,433.6
					c-3.66-8.12-0.05-20.05,6.25-26.35s15.43-7.8,24.1-5.77c4.44,1.04,8.56,3.21,13.03,4.1c4.47,0.89,9.76,0.13,11.96-3.29
					c10.63,2.51,21.26,5.01,31.11,8.45c-0.96,10.84-4.85,20.99-13.26,28.24c-15.55,13.39-33.71,4.77-37,4.26
					C355.03,441.38,335.04,443,330.81,433.6z"/>
				<path style="fill:#4D9AD0;stroke:#422724;stroke-linecap:round;stroke-linejoin:round;stroke-miterlimit:10;" d="M333.81,427
					c-6.04,0.04-11.14-4.64-14.26-9.8c-3.13-5.17-4.97-11.06-8.37-16.05c-3.9-5.72-9.76-10-16.24-12.45
					c-6.48-2.45-13.56-3.12-20.46-2.44c-3.2,0.32-6.53,0.99-9,3.06c-1.02,0.85-1.87,1.96-2.15,3.25c-0.28,1.29,0.1,2.78,1.15,3.58
					c1.31,0.99,3.14,0.71,4.77,0.46c12.44-1.94,26.19,1.42,34.53,10.84c3.46,3.91,5.84,8.62,8.29,13.23
					c2.44,4.61,5.04,9.24,8.81,12.85c3.77,3.6,8.94,6.09,14.12,5.49C333.88,435.18,333.7,431.06,333.81,427z"/>
				<path style="fill:#4D9AD0;stroke:#422724;stroke-linecap:round;stroke-linejoin:round;stroke-miterlimit:10;" d="M333.03,412.98
					c-5.69,9.54-4.99,22.51,1.92,31.55c-1.65,1.38-3.33,2.8-4.38,4.68c-1.05,1.87-1.34,4.33-0.16,6.12
					c1.57,2.39,4.91,2.69,7.77,2.67c10.11-0.05,20.57-0.92,29.99,2.75c1.77,0.69,3.64,1.54,5.48,1.07c2.43-0.63,3.74-3.59,3.1-6.02
					c-0.63-2.43-2.76-4.24-5.09-5.16c-2.33-0.92-4.89-1.07-7.42-1.78c5.21-0.86,9.53-5.11,11.09-10.15
					c1.56-5.04,0.54-10.68-2.14-15.23c-2.68-4.55-6.89-8.06-11.57-10.51"/>
				<path style="fill:#4D9AD0;stroke:#422724;stroke-linecap:round;stroke-linejoin:round;stroke-miterlimit:10;" d="M400.82,428.65
					c-0.31,8.29,1,16.63,3.83,24.42c0.68,1.87,1.43,4.01,0.47,5.74c-0.79,1.43-2.55,2.08-4.18,2.08c-2.39,0-4.68-1.14-6.45-2.75
					c-1.77-1.61-3.08-3.66-4.23-5.75c-3.3-5.99-5.53-12.57-6.54-19.33"/>
			</g>
			<g>
				<path style="fill:#4D9AD0;stroke:#422724;stroke-linecap:round;stroke-linejoin:round;stroke-miterlimit:10;" d="M433.25,332.82
					c0,0-28.22-27.37-41.44-23.17c-5.78,1.83-12.92,40.16-7.21,50.53"/>
				<g>
					<path style="fill:#4D9AD0;stroke:#422724;stroke-linecap:round;stroke-linejoin:round;stroke-miterlimit:10;" d="
						M446.44,414.98c-0.37,0.08-0.74,0.16-1.11,0.23c-12.43,2.14-21.61,1.85-27.14,1.2c-29.26-3.44-47.68-9.74-47.68-38.54
						c0-32.45,16.05-49.5,42-49.5c37.43,0,54.24,26.44,50,55.5c-0.24,1.66-0.55,3.25-0.9,4.78c-0.02,0.05-0.03,0.11-0.04,0.16
						c1.47,0.11,4.09,0.67,4.96,3.29C469.27,400.31,461.22,411.71,446.44,414.98z"/>
				</g>
				<g>
					<path style="fill:#4D9AD0;stroke:#422724;stroke-linecap:round;stroke-linejoin:round;stroke-miterlimit:10;" d="
						M399.24,330.84c0,0-40.84-6.48-50.06,4.51c-4.03,4.8,11.99,40.47,23.06,45.77"/>
					<path style="fill:#F0C1AF;stroke:#422724;stroke-linecap:round;stroke-linejoin:round;stroke-miterlimit:10;" d="M353.7,339.66
						c12.44-2.41,20.75,10.17,36.73,7.96c4.11-0.57-8.47,28.22-17,27.4C367.28,374.75,349.82,340.42,353.7,339.66z"/>
				</g>
				<g>
					<ellipse style="fill:#422724;" cx="442.63" cy="390.95" rx="2.5" ry="4.38"/>
					<path style="fill:#E6F9FF;stroke:#422724;stroke-linecap:round;stroke-linejoin:round;stroke-miterlimit:10;" d="
						M446.44,414.98c-0.37,0.08-0.74,0.16-1.11,0.23c-0.03-0.09-0.06-0.17-0.08-0.26c-1.87-6.98,0.13-14.87,5.1-20.12
						c2.99-3.16,7-5.3,11.26-6.18c-0.02,0.05-0.03,0.11-0.04,0.16c1.47,0.11,4.09,0.67,4.96,3.29
						C469.27,400.31,461.22,411.71,446.44,414.98z"/>
					<path style="fill:#422724;" d="M462.7,388.97c0.14-0.82,2.56-1.07,4.91-0.68c4.95,0.81,1.48,9.95-0.72,9.17
						C465.8,397.06,462.51,390.14,462.7,388.97z"/>
				</g>
			</g>
		</g>
	</g>
	<g>
		<ellipse style="fill:#9BB4E0;" cx="134.43" cy="459.38" rx="68.5" ry="5.5"/>
		<g>
			<g>
				<path style="fill:#4D9AD0;stroke:#422724;stroke-linecap:round;stroke-linejoin:round;stroke-miterlimit:10;" d="M165.27,435.03
					c-6.11,7.31-13.28,14.42-22.48,16.91c-1.2,0.32-2.45,0.57-3.67,0.37s-2.43-0.89-2.95-2.01c-0.63-1.36-0.14-2.96,0.43-4.34
					c1.67-4.04,4.04-7.79,6.98-11.04"/>
				<path style="fill:#4D9AD0;stroke:#422724;stroke-linecap:round;stroke-linejoin:round;stroke-miterlimit:10;" d="M107.17,441.41
					c-8.31-1.74-12.08-6.08-13.16-11.45c-1.07-5.38,0.63-10.99,3.39-15.73c3.43-5.87,8.68-10.85,15.11-13.05
					c5.91-2.02,12.46-1.6,18.42,0.26c5.96,1.85,11.66,5.81,17.38,9.8c8.6,1.66,16.95,2.57,25.8,4.55c1.32,7.72-2.3,15.81-8.26,20.89
					c-5.96,5.08-13.96,7.36-21.8,7.4c-7.07,0.04-14.13-1.65-20.06-5.09C119.61,440.87,112.24,442.47,107.17,441.41z"/>
				<path style="fill:#4D9AD0;stroke:#422724;stroke-linecap:round;stroke-linejoin:round;stroke-miterlimit:10;" d="M98.49,419.63
					c-5.55,0.42-11.02-1.9-15.48-5.23c-4.46-3.33-8.08-7.63-11.76-11.81s-7.52-8.33-12.26-11.24c-7.31-4.48-16.59-5.63-24.77-3.07
					c-1.61,0.5-3.23,1.18-4.39,2.39c-1.16,1.21-1.79,3.09-1.12,4.64c0.7,1.63,2.58,2.46,4.35,2.55c1.77,0.09,3.51-0.39,5.27-0.62
					c7.87-1.03,15.58,3.03,21.57,8.24c5.99,5.21,10.84,11.62,16.87,16.78c6.04,5.15,13.85,9.08,21.69,7.84
					C98.43,426.67,98.41,423.25,98.49,419.63z"/>
				<path style="fill:#4D9AD0;stroke:#422724;stroke-linecap:round;stroke-linejoin:round;stroke-miterlimit:10;" d="M153.91,434.79
					c-6.72,6.7-14.46,12.38-22.85,16.81c-1.15,0.61-2.47,1.21-3.71,0.81c-1.67-0.53-2.32-2.56-2.35-4.31
					c-0.1-5.57,3.41-10.51,4.82-15.9"/>
				<path style="fill:#4D9AD0;stroke:#422724;stroke-linecap:round;stroke-linejoin:round;stroke-miterlimit:10;" d="M120,410.69
					c5.26,0.91,10.55,2.63,14.59,6.12c4.04,3.49,6.6,9.04,5.44,14.25c-0.64,2.89-2.35,5.46-4.45,7.56c-2.1,2.1-4.56,3.78-7,5.36
					c2.4-0.02,4.84-0.04,7.14,0.65s4.47,2.22,5.32,4.46c0.86,2.24,0.01,5.17-2.18,6.15c-1.52,0.67-3.27,0.33-4.9,0.03
					c-6.11-1.14-12.34-1.61-18.56-1.4c-2.3,0.08-4.63,0.24-6.86-0.32c-2.23-0.56-4.39-1.99-5.13-4.17
					c-0.75-2.17,0.45-5.01,2.83-5.85c-5.02-1.45-9.31-5.25-11.37-10.05c-2.06-4.8-1.84-10.53,0.57-15.16"/>
			</g>
			<g>
				<path style="fill:#4D9AD0;stroke:#422724;stroke-linecap:round;stroke-linejoin:round;stroke-miterlimit:10;" d="M194.66,337.62
					c0,0-28.22-27.37-41.44-23.17c-5.78,1.83-12.92,40.16-7.21,50.53"/>
				<g>
					<path style="fill:#4D9AD0;stroke:#422724;stroke-linecap:round;stroke-linejoin:round;stroke-miterlimit:10;" d="
						M207.85,419.77c-0.37,0.08-0.74,0.16-1.11,0.23c-12.43,2.14-21.61,1.85-27.14,1.2c-29.26-3.44-47.68-9.74-47.68-38.54
						c0-32.45,16.05-49.5,42-49.5c37.43,0,54.24,26.44,50,55.5c-0.24,1.66-0.55,3.25-0.9,4.78c-0.02,0.05-0.03,0.11-0.04,0.16
						c1.47,0.11,4.09,0.67,4.96,3.29C230.68,405.1,222.63,416.5,207.85,419.77z"/>
				</g>
				<g>
					<path style="fill:#4D9AD0;stroke:#422724;stroke-linecap:round;stroke-linejoin:round;stroke-miterlimit:10;" d="
						M160.64,335.63c0,0-40.84-6.48-50.06,4.51c-4.03,4.8,11.99,40.47,23.06,45.77"/>
					<path style="fill:#F0C1AF;stroke:#422724;stroke-linecap:round;stroke-linejoin:round;stroke-miterlimit:10;" d="M115.1,344.46
						c12.44-2.41,20.75,10.17,36.73,7.96c4.11-0.57-8.47,28.22-17,27.4C128.68,379.55,111.23,345.21,115.1,344.46z"/>
				</g>
				<g>
					<ellipse style="fill:#422724;" cx="204.03" cy="395.74" rx="2.5" ry="4.38"/>
					<path style="fill:#E6F9FF;stroke:#422724;stroke-linecap:round;stroke-linejoin:round;stroke-miterlimit:10;" d="
						M207.85,419.77c-0.37,0.08-0.74,0.16-1.11,0.23c-0.03-0.09-0.06-0.17-0.08-0.26c-1.87-6.98,0.13-14.87,5.1-20.12
						c2.99-3.16,7-5.3,11.26-6.18c-0.02,0.05-0.03,0.11-0.04,0.16c1.47,0.11,4.09,0.67,4.96,3.29
						C230.68,405.1,222.63,416.5,207.85,419.77z"/>
					<path style="fill:#422724;" d="M224.11,393.76c0.14-0.82,2.56-1.07,4.91-0.68c4.95,0.81,1.48,9.95-0.72,9.17
						C227.2,401.86,223.91,394.93,224.11,393.76z"/>
				</g>
			</g>
		</g>
	</g>
	<g>
		<ellipse style="fill:#9BB4E0;" cx="601.33" cy="242.08" rx="68.5" ry="5.5"/>
		<g>
			<g>
				<path style="fill:#4D9AD0;stroke:#422724;stroke-linecap:round;stroke-linejoin:round;stroke-miterlimit:10;" d="M635.71,209.96
					c0.97,7.89,3.45,15.61,7.29,22.61c0.69,1.27,1.44,2.53,1.77,3.93c0.33,1.4,0.18,2.99-0.78,4.08c-1.04,1.19-2.83,1.54-4.4,1.23
					c-1.57-0.31-2.96-1.17-4.27-2.07c-8.33-5.74-14.9-13.91-18.65-23.2"/>
				<path style="fill:#4D9AD0;stroke:#422724;stroke-linecap:round;stroke-linejoin:round;stroke-miterlimit:10;" d="M572.27,183.64
					c-10.29-7.51-21.35-14.5-33.79-17.28s-26.58-0.69-35.79,8.11c-1.3,1.24-2.51,2.64-3.09,4.33c-0.58,1.7-0.41,3.74,0.82,5.05
					c1.48,1.58,4.05,1.64,6.06,0.85c2.02-0.8,3.68-2.27,5.46-3.51c8.15-5.65,18.98-6.2,28.59-3.75c9.61,2.45,18.29,7.56,26.82,12.61
					C569,188.18,570.64,186.3,572.27,183.64z"/>
				<path style="fill:#4D9AD0;stroke:#422724;stroke-linecap:round;stroke-linejoin:round;stroke-miterlimit:10;" d="M572.37,217.66
					c-6.02-4.22-10.73-9.61-10.98-16.96c-0.29-8.51,5.02-16.51,12.66-20.28s16.73-3.75,24.95-1.53s15.73,6.5,23.57,10.6
					c5.84-0.54,11.64-1.48,18.05-1.76c1.33,6.12,1.27,12.56,0.07,18.46c-1.06,5.19-4.27,9.55-8.93,12.07
					c-4.66,2.52-10.34,3.08-15.4,1.52c-2.97-0.92-5.74-2.53-8.83-2.9c-4.52-0.54-8.84,1.66-13.21,2.95
					C587.63,221.8,577.6,221.32,572.37,217.66z"/>
				<path style="fill:#4D9AD0;stroke:#422724;stroke-linecap:round;stroke-linejoin:round;stroke-miterlimit:10;" d="M614.94,208.89
					c-4.3,7.95-6.56,17.01-6.49,26.05c0.02,2.59,0.01,5.65-2.12,7.13c-1.44,1-3.46,0.85-5.01,0.01c-1.54-0.84-2.69-2.25-3.67-3.71
					c-4.97-7.42-6.47-17.07-3.96-25.64"/>
				<g>
					<path style="fill:#4D9AD0;stroke:#422724;stroke-linecap:round;stroke-linejoin:round;stroke-miterlimit:10;" d="
						M569.08,183.74c-3.8,3.08-7.01,8.05-8.02,13.38s0.06,11.02,2.44,15.83c-1.28-0.81-3.14-0.06-3.83,1.29
						c-0.69,1.35-0.41,3.03,0.33,4.35c0.75,1.32,1.91,2.34,3.05,3.34c2.92,2.57,5.84,5.14,8.76,7.71
						c4.56,4.01,9.11,8.02,13.67,12.03c0.52,0.46,1.07,0.94,1.75,1.12c1.79,0.48,3.4-1.28,4.08-3.01c1.68-4.33,0.34-9.65-3.02-13.09
						c5.41-0.55,9.83-5.17,11.29-10.41c1.46-5.24,0.4-10.9-1.69-15.92c-1.95-4.66-5.08-9.21-9.8-11"/>
					<path style="fill:none;stroke:#422724;stroke-linecap:round;stroke-linejoin:round;stroke-miterlimit:10;" d="M563.26,212.47
						c1.28,2.45,3.54,5.13,5.42,6.79"/>
				</g>
			</g>
			<g>
				<path style="fill:#4D9AD0;stroke:#422724;stroke-linecap:round;stroke-linejoin:round;stroke-miterlimit:10;" d="M664.16,112.83
					c0,0-28.22-27.37-41.44-23.17c-5.78,1.83-12.92,40.16-7.21,50.53"/>
				<g>
					<path style="fill:#4D9AD0;stroke:#422724;stroke-linecap:round;stroke-linejoin:round;stroke-miterlimit:10;" d="
						M677.35,194.99c-0.37,0.08-0.74,0.16-1.11,0.23c-12.43,2.14-21.61,1.85-27.14,1.2c-29.26-3.44-47.68-9.74-47.68-38.54
						c0-32.45,16.05-49.5,42-49.5c37.43,0,54.24,26.44,50,55.5c-0.24,1.66-0.55,3.25-0.9,4.78c-0.02,0.05-0.03,0.11-0.04,0.16
						c1.47,0.11,4.09,0.67,4.96,3.29C700.18,180.32,692.13,191.72,677.35,194.99z"/>
				</g>
				<g>
					<path style="fill:#4D9AD0;stroke:#422724;stroke-linecap:round;stroke-linejoin:round;stroke-miterlimit:10;" d="
						M630.15,110.84c0,0-40.84-6.48-50.06,4.51c-4.03,4.8,11.99,40.47,23.06,45.77"/>
					<path style="fill:#F0C1AF;stroke:#422724;stroke-linecap:round;stroke-linejoin:round;stroke-miterlimit:10;" d="M584.6,119.67
						c12.44-2.41,20.75,10.17,36.73,7.96c4.11-0.57-8.47,28.22-17,27.4C598.18,154.76,580.73,120.42,584.6,119.67z"/>
				</g>
				<g>
					<ellipse style="fill:#422724;" cx="673.53" cy="170.95" rx="2.5" ry="4.38"/>
					<path style="fill:#E6F9FF;stroke:#422724;stroke-linecap:round;stroke-linejoin:round;stroke-miterlimit:10;" d="
						M677.35,194.99c-0.37,0.08-0.74,0.16-1.11,0.23c-0.03-0.09-0.06-0.17-0.08-0.26c-1.87-6.98,0.13-14.87,5.1-20.12
						c2.99-3.16,7-5.3,11.26-6.18c-0.02,0.05-0.03,0.11-0.04,0.16c1.47,0.11,4.09,0.67,4.96,3.29
						C700.18,180.32,692.13,191.72,677.35,194.99z"/>
					<path style="fill:#422724;" d="M693.61,168.98c0.14-0.82,2.56-1.07,4.91-0.68c4.95,0.81,1.48,9.95-0.72,9.17
						C696.7,177.07,693.41,170.14,693.61,168.98z"/>
				</g>
			</g>
		</g>
	</g>
	<g>
		<ellipse style="fill:#9BB4E0;" cx="388.19" cy="242.08" rx="68.5" ry="5.5"/>
		<g>
			<g>
				<path style="fill:#4D9AD0;stroke:#422724;stroke-linecap:round;stroke-linejoin:round;stroke-miterlimit:10;" d="M346.14,169.96
					c-5.91,1.48-13.22,4.2-16.63,9.25c-3.41,5.05-4.56,9.46-4.56,16.89c-2.09-2.25-5.97-1.73-8.38,0.18s-3.78,4.79-5.35,7.43
					c-3.21,5.4-7.55,10.13-12.66,13.8c-1.69,1.21-3.65,2.62-3.78,4.7c-0.1,1.71,1.21,3.27,2.79,3.93c1.58,0.66,3.37,0.58,5.07,0.32
					c8.05-1.25,15.33-6.7,19.16-14.13c7.98,3.12,17.52,1.89,24.46-3.14"/>
				<path style="fill:#4D9AD0;stroke:#422724;stroke-linecap:round;stroke-linejoin:round;stroke-miterlimit:10;" d="M341.84,171.44
					c-12.43-5.89-25.25-11.88-38.98-12.7c-10.83-0.65-21.66,2.01-31.65,6.24c-2.16,0.92-4.36,1.96-5.85,3.77
					c-1.49,1.81-2.08,4.57-0.75,6.5c0.97,1.41,2.77,2.09,4.48,2.11c1.72,0.02,3.38-0.54,4.98-1.16c4.09-1.59,7.99-3.66,12.15-5.06
					c8.27-2.78,17.28-2.82,25.86-1.27c8.58,1.56,16.81,4.65,24.87,7.99C336.98,177.9,337.01,177.93,341.84,171.44z"/>
				<path style="fill:#4D9AD0;stroke:#422724;stroke-linecap:round;stroke-linejoin:round;stroke-miterlimit:10;" d="M416.48,197.76
					c6.73,9.39,13.46,18.79,20.19,28.18c1.49,2.08,3.03,4.29,3.32,6.88c0.29,2.59-1.17,5.65-3.73,6.21c-1.9,0.42-3.73-0.6-5.34-1.62
					c-10.75-6.82-20.43-15.28-28.63-25.03"/>
				<path style="fill:#4D9AD0;stroke:#422724;stroke-linecap:round;stroke-linejoin:round;stroke-miterlimit:10;" d="M399.81,186.55
					c-24.01,5.49-50.04-28.83-63.18-14.69c-10.33,11.12-6.05,25.7,6,35.68c24.58,20.37,85.53,23.65,77.11-11.61
					C413.76,194.29,405.03,190.02,399.81,186.55z"/>
				<path style="fill:#4D9AD0;stroke:#422724;stroke-linecap:round;stroke-linejoin:round;stroke-miterlimit:10;" d="M341.69,168.76
					c-5.76,2.11-8.58,5.86-10.64,10.64s-2.26,10.34-0.54,15.25c-0.24-1.99-2.9-2.97-4.69-2.07c-1.78,0.91-2.64,3.05-2.66,5.05
					s0.62,3.94,1.11,5.88c1.54,6.19,1.46,12.77-0.24,18.91c-0.82,2.99-1.96,6.41-0.23,8.98c1.89,2.81,6.25,2.74,9.13,0.96
					c2.99-1.84,4.97-5.02,5.98-8.38s1.13-6.92,1.44-9.66c5.12,3.85,12.61,4.2,18.07,0.85c5.46-3.35,8.53-10.19,7.42-16.5"/>
				<path style="fill:#4D9AD0;stroke:#422724;stroke-linecap:round;stroke-linejoin:round;stroke-miterlimit:10;" d="M381.12,209.9
					c-1.9,0.77-3.82,1.55-5.47,2.76c-1.66,1.2-3.05,2.89-3.49,4.89c-0.73,3.33,1.26,6.61,3.28,9.36
					c4.8,6.54,10.55,12.76,18.04,15.87c1.86,0.77,4.09,1.31,5.8,0.26c1.27-0.78,1.95-2.3,2.06-3.79c0.11-1.49-0.27-2.97-0.7-4.39
					c-1.47-4.9-3.55-9.62-6.18-14.01"/>
			</g>
			<g>
				<path style="fill:#4D9AD0;stroke:#422724;stroke-linecap:round;stroke-linejoin:round;stroke-miterlimit:10;" d="M442.79,116.03
					c0,0-28.22-27.37-41.44-23.17c-5.78,1.83-12.92,40.16-7.21,50.53"/>
				<g>
					<path style="fill:#4D9AD0;stroke:#422724;stroke-linecap:round;stroke-linejoin:round;stroke-miterlimit:10;" d="
						M455.98,198.19c-0.37,0.08-0.74,0.16-1.11,0.23c-12.43,2.14-21.61,1.85-27.14,1.2c-29.26-3.44-47.68-9.74-47.68-38.54
						c0-32.45,16.05-49.5,42-49.5c37.43,0,54.24,26.44,50,55.5c-0.24,1.66-0.55,3.25-0.9,4.78c-0.02,0.05-0.03,0.11-0.04,0.16
						c1.47,0.11,4.09,0.67,4.96,3.29C478.81,183.52,470.76,194.92,455.98,198.19z"/>
				</g>
				<g>
					<path style="fill:#4D9AD0;stroke:#422724;stroke-linecap:round;stroke-linejoin:round;stroke-miterlimit:10;" d="
						M408.78,114.04c0,0-40.84-6.48-50.06,4.51c-4.03,4.8,11.99,40.47,23.06,45.77"/>
					<path style="fill:#F0C1AF;stroke:#422724;stroke-linecap:round;stroke-linejoin:round;stroke-miterlimit:10;" d="
						M363.23,122.87c12.44-2.41,20.75,10.17,36.73,7.96c4.11-0.57-8.47,28.22-17,27.4C376.81,157.96,359.36,123.62,363.23,122.87z"
						/>
				</g>
				<g>
					<ellipse style="fill:#422724;" cx="452.16" cy="174.16" rx="2.5" ry="4.38"/>
					<path style="fill:#E6F9FF;stroke:#422724;stroke-linecap:round;stroke-linejoin:round;stroke-miterlimit:10;" d="
						M455.98,198.19c-0.37,0.08-0.74,0.16-1.11,0.23c-0.03-0.09-0.06-0.17-0.08-0.26c-1.87-6.98,0.13-14.87,5.1-20.12
						c2.99-3.16,7-5.3,11.26-6.18c-0.02,0.05-0.03,0.11-0.04,0.16c1.47,0.11,4.09,0.67,4.96,3.29
						C478.81,183.52,470.76,194.92,455.98,198.19z"/>
					<path style="fill:#422724;" d="M472.24,172.18c0.14-0.82,2.56-1.07,4.91-0.68c4.95,0.81,1.48,9.95-0.72,9.17
						C475.33,180.27,472.04,173.35,472.24,172.18z"/>
				</g>
			</g>
		</g>
	</g>
	<g>
		<ellipse style="fill:#9BB4E0;" cx="154.08" cy="243.36" rx="68.5" ry="5.5"/>
		<g>
			<g>
				<path style="fill:#4D9AD0;stroke:#422724;stroke-linecap:round;stroke-linejoin:round;stroke-miterlimit:10;" d="M135.7,208.9
					c-7.09,6.53-17.44,10.11-26.66,7.26c-2.55-0.79-5-2.04-7.66-2.17c-3.13-0.15-6.13,1.28-8.71,3.06s-4.89,3.94-7.57,5.56
					c-3.25,1.96-7.01,3.08-10.8,3.2c-2.11,0.07-4.75-0.58-5.18-2.65c-0.35-1.68,1.01-3.18,2.25-4.35
					c5.39-5.1,10.79-10.19,16.18-15.29"/>
				<path style="fill:#4D9AD0;stroke:#422724;stroke-linecap:round;stroke-linejoin:round;stroke-miterlimit:10;" d="M188.8,182.8
					c11.14,2.94,22.29,5.87,33.43,8.81c2.47,0.65,5.05,1.36,6.91,3.12c1.85,1.76,2.65,4.92,1.02,6.89
					c-1.21,1.46-3.28,1.81-5.16,2.02c-12.64,1.42-25.49,0.96-38-1.35"/>
				<path style="fill:#4D9AD0;stroke:#422724;stroke-linecap:round;stroke-linejoin:round;stroke-miterlimit:10;" d="M121.18,172.12
					c-14.23-1.08-26.05-11.23-39.7-15.38c-10.04-3.06-20.84-2.77-31.19-1.02c-3.94,0.67-7.98,1.61-11.15,4.03
					c-1.26,0.96-2.41,2.25-2.59,3.83c-0.28,2.37,1.81,4.51,4.13,5.11c2.31,0.6,4.75,0.06,7.07-0.51c9.79-2.44,19.83-5.57,29.78-3.9
					c13.43,2.26,24.49,12.98,38.13,14.08C117.33,176.51,119,174.66,121.18,172.12z"/>
				<path style="fill:#4D9AD0;stroke:#422724;stroke-linecap:round;stroke-linejoin:round;stroke-miterlimit:10;" d="M173.84,176.38
					c-22.78,9.37-44.44-14.24-59.79-2.61c-13.19,9.99-6.59,26.64,7.1,34.22c27.26,16.61,78.01,16.71,72.17-26.87
					C187.14,180.49,179.56,178.95,173.84,176.38z"/>
				<path style="fill:#4D9AD0;stroke:#422724;stroke-linecap:round;stroke-linejoin:round;stroke-miterlimit:10;" d="M119.4,171.1
					c-5.56,1.46-9.77,5.99-13.51,10.36c-3.02,3.53-6.05,7.26-9.91,9.95c-1.62,1.13-3.64,1.47-5.57,1.07
					c-2.38-0.51-4.82-0.68-6.98,0.33c-2.24,1.04-3.74,3.16-5.29,5.07c-3.55,4.34-7.89,8.03-12.76,10.82
					c-2.35,1.35-5.12,2.88-5.13,5.78c0,1.11,0.47,2.19,1.22,3.01c1.71,1.86,4.23,2.32,6.62,2.25c8.45-0.24,15.88-7.31,23.92-6.67
					c12.69,3.25,26.85,1.17,37.04-7.07"/>
				<path style="fill:#4D9AD0;stroke:#422724;stroke-linecap:round;stroke-linejoin:round;stroke-miterlimit:10;" d="M184.15,200.77
					c8.29,8.36,15.89,17.39,22.7,26.99c1.15,1.62,2.32,3.44,2.09,5.41c-0.19,1.66-1.42,3.09-2.93,3.82
					c-1.51,0.73-3.25,0.84-4.91,0.64c-4.67-0.56-8.7-3.39-12.52-6.13c-7.96-5.71-15.91-11.41-23.87-17.12"/>
			</g>
			<g>
				<path style="fill:#4D9AD0;stroke:#422724;stroke-linecap:round;stroke-linejoin:round;stroke-miterlimit:10;" d="M208.98,98.73
					c0,0-28.22-27.37-41.44-23.17c-5.78,1.83-12.92,40.16-7.21,50.53"/>
				<g>
					<path style="fill:#4D9AD0;stroke:#422724;stroke-linecap:round;stroke-linejoin:round;stroke-miterlimit:10;" d="
						M222.17,180.89c-0.37,0.08-0.74,0.16-1.11,0.23c-12.43,2.14-21.61,1.85-27.14,1.2c-29.26-3.44-47.68-9.74-47.68-38.54
						c0-32.45,16.05-49.5,42-49.5c37.43,0,54.24,26.44,50,55.5c-0.24,1.66-0.55,3.25-0.9,4.78c-0.02,0.05-0.03,0.11-0.04,0.16
						c1.47,0.11,4.09,0.67,4.96,3.29C245,166.22,236.95,177.62,222.17,180.89z"/>
				</g>
				<g>
					<path style="fill:#4D9AD0;stroke:#422724;stroke-linecap:round;stroke-linejoin:round;stroke-miterlimit:10;" d="M174.97,96.75
						c0,0-40.84-6.48-50.06,4.51c-4.03,4.8,11.99,40.47,23.06,45.77"/>
					<path style="fill:#F0C1AF;stroke:#422724;stroke-linecap:round;stroke-linejoin:round;stroke-miterlimit:10;" d="
						M129.43,105.58c12.44-2.41,20.75,10.17,36.73,7.96c4.11-0.57-8.47,28.22-17,27.4C143.01,140.66,125.56,106.33,129.43,105.58z"
						/>
				</g>
				<g>
					<ellipse style="fill:#422724;" cx="218.36" cy="156.86" rx="2.5" ry="4.38"/>
					<path style="fill:#E6F9FF;stroke:#422724;stroke-linecap:round;stroke-linejoin:round;stroke-miterlimit:10;" d="
						M222.17,180.89c-0.37,0.08-0.74,0.16-1.11,0.23c-0.03-0.09-0.06-0.17-0.08-0.26c-1.87-6.98,0.13-14.87,5.1-20.12
						c2.99-3.16,7-5.3,11.26-6.18c-0.02,0.05-0.03,0.11-0.04,0.16c1.47,0.11,4.09,0.67,4.96,3.29
						C245,166.22,236.95,177.62,222.17,180.89z"/>
					<path style="fill:#422724;" d="M238.43,154.88c0.14-0.82,2.56-1.07,4.91-0.68c4.95,0.81,1.48,9.95-0.72,9.17
						C241.53,162.97,238.24,156.05,238.43,154.88z"/>
				</g>
			</g>
		</g>
	</g>
</g>
<g id="TEXTS">
	<g>
		
			<text transform="matrix(1 0 0 1 138.1173 51.9355)" style="fill:#525FA3; font-family:'Montserrat-SemiBold'; font-size:20.5716px;">1</text>
		
			<text transform="matrix(1 0 0 1 368.9396 51.935)" style="fill:#525FA3; font-family:'Montserrat-SemiBold'; font-size:20.5716px;">2</text>
		
			<text transform="matrix(1 0 0 1 605.0689 51.9355)" style="fill:#525FA3; font-family:'Montserrat-SemiBold'; font-size:20.5716px;">3</text>
		
			<text transform="matrix(1 0 0 1 127.2604 291.1454)" style="fill:#525FA3; font-family:'Montserrat-SemiBold'; font-size:20.5716px;">4</text>
		
			<text transform="matrix(1 0 0 1 365.4229 291.1454)" style="fill:#525FA3; font-family:'Montserrat-SemiBold'; font-size:20.5716px;">5</text>
		
			<text transform="matrix(1 0 0 1 609.8416 291.1453)" style="fill:#525FA3; font-family:'Montserrat-SemiBold'; font-size:20.5716px;">6</text>
	</g>
</g>
</svg>
